<svg width="667.5" height="154.5" xml:space="preserve" xmlns="http://www.w3.org/2000/svg"><g fill="#241f31" style="fill:#5e5c64"><path d="M1 7h8v8zm0 0" style="fill:#343434;fill-opacity:1" transform="translate(-11.1 -11) scale(11.03449)"/><path d="M15 1H9v6zm0 0" style="fill:#4d4d4d;fill-opacity:1" transform="translate(-11.1 -11) scale(11.03449)"/><path d="M9 7h5v5zm0 0" style="fill:#656565;fill-opacity:1" transform="translate(-11.1 -11) scale(11.03449)"/></g><g style="font-weight:700;font-size:40px;font-family:'Noto Sans Mono CJK HK';-inkscape-font-specification:'Noto Sans Mono CJK HK Bold';letter-spacing:.42px;white-space:pre;fill:#343434"><path d="M335 274.6h3.6V263c0-5.3-3-8.2-8.7-8.2-2.8 0-5.8.7-8 1.9l1.1 3.5c2-.8 4-1.2 5.8-1.2 3.1 0 4.8 1.2 4.8 3.6v8.3zm-6.9.4a8 8 0 0 0 8.4-6.6l-1.7-.8a5 5 0 0 1-5 3.4c-2 0-3.3-1-3.3-2.4 0-1.9 2.3-2.6 8-2.6v-3c-9 0-13 2-13 6.2 0 3.5 2.6 5.7 6.6 5.7zm23.5 0c3 0 5.5-1.4 7-4l-1.2-2.6a4.7 4.7 0 0 1-4.2 2.4c-3 0-4.8-2.4-4.8-6 0-3.5 1.7-5.7 4.6-5.7 2 0 3.5 1 4.4 2.5l1.4-3a7 7 0 0 0-6.5-3.8c-5.5 0-9.1 4.1-9.1 10.3 0 6 3.4 10 8.4 10zm7-.4h3.4v-29.5h-5v26zm13.5 0h5l5.1-16.4h-1.7l5.6 16.4h5.1l6.5-19.4h-5l-4.8 17h1.9l-5.5-17h-5l-5.3 17.2h1.7l-4.7-17.2h-5.6zm41.3 0h3.6V263c0-5.3-3-8.2-8.7-8.2-2.8 0-5.7.7-8 1.9l1.2 3.5c2-.8 4-1.2 5.7-1.2 3.2 0 4.8 1.2 4.8 3.6v8.3zm-6.8.4a8 8 0 0 0 8.3-6.6l-1.6-.8a5 5 0 0 1-5 3.4c-2 0-3.3-1-3.3-2.4 0-1.9 2.3-2.6 7.9-2.6v-3c-9 0-13 2-13 6.2 0 3.5 2.6 5.7 6.7 5.7zm16.3-.4h5v-19.4h-5zm2.5-23c2 0 3.2-1.2 3.2-3.1 0-2-1.3-3.2-3.2-3.2-1.9 0-3.1 1.3-3.1 3.2 0 2 1.2 3.1 3.1 3.1zm16.4 23.4c1.4 0 2.8-.3 4-.8l-1-3.6a5 5 0 0 1-1.8.4c-1.9 0-3-1.1-3-2.8v-18.6h-5v19c0 3.9 2.5 6.3 6.8 6.3zm-9.6-15.7H445v-4h-12.7zm29.9 15.3h3.6V263c0-5.3-3-8.2-8.7-8.2-2.8 0-5.7.7-8 1.9l1.2 3.5c2-.8 4-1.2 5.7-1.2 3.2 0 4.8 1.2 4.8 3.6v8.3zm-6.8.4a8 8 0 0 0 8.3-6.6l-1.6-.8a5 5 0 0 1-5 3.4c-2 0-3.3-1-3.3-2.4 0-1.9 2.3-2.6 7.9-2.6v-3c-9 0-13 2-13 6.2 0 3.5 2.6 5.7 6.7 5.7zm26 0c5.3 0 9-4.2 9-10.4 0-5.8-3.5-9.8-8.5-9.8a8 8 0 0 0-7 4.2l1.2 2.4c1-1.4 2.6-2.3 4.4-2.3 2.9 0 4.7 2.3 4.7 6 0 3.4-1.7 5.7-4.5 5.7a5 5 0 0 1-4.6-3.4l-1.5 3a7 7 0 0 0 6.8 4.6zm-9.7 8.3h4.9v-24.5l-1.5-3.6h-3.4zm32.1-8.3c6.2 0 10.3-4.1 10.3-10.4 0-6-3.8-9.8-9.7-9.8-6.1 0-10.2 4.2-10.2 10.4 0 6 3.8 9.8 9.6 9.8zm.5-4.2c-3 0-5-2.4-5-6 0-3.5 1.8-5.7 4.7-5.7 3 0 5 2.4 5 6 0 3.5-1.8 5.7-4.7 5.7zm22 4.2c3 0 5.5-1.4 7-4l-1.2-2.6a4.7 4.7 0 0 1-4.2 2.4c-3 0-4.8-2.4-4.8-6 0-3.5 1.7-5.7 4.6-5.7 2 0 3.5 1 4.4 2.5l1.4-3a7 7 0 0 0-6.5-3.8c-5.5 0-9.1 4.1-9.1 10.3 0 6 3.4 10 8.4 10zm7-.4h3.4v-29.5h-5v26z" style="-inkscape-font-specification:'Cantarell Bold'" transform="translate(-528.3 -511.6) scale(2.22856)" aria-label="adwaitapod"/></g></svg>